<svg width="36" height="35" viewBox="0 0 36 35" fill="none" xmlns="http://www.w3.org/2000/svg">
<path d="M6.22855 30.0953C7.38195 31.0652 8.6507 31.921 9.97711 32.6056V1.91144C8.59303 2.59607 7.32428 3.45186 6.22855 4.42174V30.0953ZM4.15243 6.58973C1.78795 9.4994 0.40387 13.2078 0.40387 17.2585C0.40387 21.3092 1.78795 25.0176 4.15243 27.9273V6.58973ZM16.1478 34.3172C14.7061 34.203 13.322 33.9178 12.0532 33.4614V1.05566C13.3796 0.599241 14.7637 0.313979 16.1478 0.199875V34.3172ZM18.2239 34.3742C27.5665 34.0889 35.0059 26.558 35.0059 17.2585C35.0059 7.95899 27.5088 0.428084 18.2239 0.142822V34.3742Z" fill="#00D74A"/>
</svg>
