<svg width="595" height="488" viewBox="0 0 595 488" fill="none" xmlns="http://www.w3.org/2000/svg">
<path fill-rule="evenodd" clip-rule="evenodd" d="M104.88 483.608C101.706 486.101 97.7048 487.587 93.3564 487.587C89.0079 487.587 85.0066 486.101 81.8329 483.608L93.3563 472.084L104.88 483.608ZM106.517 482.16C106.545 482.132 106.573 482.105 106.601 482.077L106.517 482.16ZM108.048 480.439L96.5249 468.916L108.048 457.392C110.541 460.566 112.028 464.567 112.028 468.916C112.028 473.264 110.541 477.266 108.048 480.439ZM93.3563 465.747L104.88 454.224C101.706 451.731 97.7049 450.245 93.3564 450.245C89.0078 450.245 85.0065 451.731 81.8329 454.224L93.3563 465.747ZM90.1877 468.916L78.6643 457.392C76.1716 460.566 74.6851 464.567 74.6851 468.916C74.6851 473.264 76.1716 477.266 78.6643 480.439L90.1877 468.916ZM80.2045 482.169L80.1032 482.068C80.1369 482.102 80.1706 482.135 80.2045 482.169Z" fill="#00C845"/>
<path fill-rule="evenodd" clip-rule="evenodd" d="M104.88 408.923C101.706 411.415 97.7048 412.902 93.3564 412.902C89.0079 412.902 85.0066 411.415 81.833 408.923L93.3562 397.399L104.88 408.923ZM108.048 405.754L96.5249 394.231L108.048 382.707C110.541 385.881 112.028 389.882 112.028 394.231C112.028 398.579 110.541 402.581 108.048 405.754ZM93.3562 391.062L104.88 379.539C101.706 377.046 97.7049 375.559 93.3564 375.559C89.0078 375.559 85.0064 377.046 81.8327 379.539L93.3562 391.062ZM90.1876 394.231L78.6641 382.707C76.1716 385.881 74.6851 389.882 74.6851 394.231C74.6851 398.579 76.1717 402.58 78.6643 405.754L90.1876 394.231ZM80.1168 381.065L80.1909 380.991C80.1661 381.016 80.1414 381.04 80.1168 381.065Z" fill="#00C845"/>
<path fill-rule="evenodd" clip-rule="evenodd" d="M104.88 446.265C101.706 448.758 97.7049 450.245 93.3564 450.245C89.0078 450.245 85.0065 448.758 81.8329 446.265L93.3563 434.742L104.88 446.265ZM106.508 444.827C106.542 444.793 106.576 444.759 106.61 444.725L106.508 444.827ZM108.048 443.097L96.5249 431.573L108.048 420.05C110.541 423.224 112.028 427.225 112.028 431.573C112.028 435.922 110.541 439.923 108.048 443.097ZM93.3563 428.405L104.88 416.881C101.706 414.389 97.7049 412.902 93.3564 412.902C89.0078 412.902 85.0065 414.389 81.8329 416.881L93.3563 428.405ZM90.1877 431.573L78.6643 420.05C76.1716 423.224 74.6851 427.225 74.6851 431.573C74.6851 435.922 76.1716 439.923 78.6643 443.097L90.1877 431.573ZM80.2126 444.834L80.0953 444.717C80.1342 444.756 80.1733 444.796 80.2126 444.834Z" fill="#00C845"/>
<path fill-rule="evenodd" clip-rule="evenodd" d="M67.5372 483.608C64.3636 486.101 60.3623 487.587 56.0138 487.587C51.6653 487.587 47.664 486.1 44.4904 483.608L56.0137 472.084L67.5372 483.608ZM69.165 482.17C69.1994 482.136 69.2336 482.101 69.2677 482.067L69.165 482.17ZM70.7058 480.439L59.1823 468.916L70.7059 457.392C73.1985 460.566 74.6851 464.567 74.6851 468.916C74.6851 473.264 73.1985 477.266 70.7058 480.439ZM56.0137 465.747L67.5372 454.224C64.3636 451.731 60.3623 450.245 56.0138 450.245C51.6653 450.245 47.6639 451.731 44.4903 454.224L56.0137 465.747ZM52.8451 468.916L41.3217 457.392C38.8291 460.566 37.3426 464.567 37.3426 468.916C37.3426 473.264 38.8291 477.266 41.3217 480.439L52.8451 468.916ZM42.8523 482.159L42.7704 482.077C42.7976 482.105 42.8249 482.132 42.8523 482.159Z" fill="#00C845"/>
<path fill-rule="evenodd" clip-rule="evenodd" d="M67.5372 446.265C64.3636 448.758 60.3623 450.245 56.0138 450.245C51.6653 450.245 47.664 448.758 44.4903 446.265L56.0137 434.742L67.5372 446.265ZM69.1572 444.835C69.1968 444.796 69.2362 444.756 69.2754 444.717L69.1572 444.835ZM70.7059 443.097L59.1823 431.573L70.7058 420.05C73.1985 423.224 74.6851 427.225 74.6851 431.573C74.6851 435.922 73.1985 439.923 70.7059 443.097ZM56.0137 428.405L67.5372 416.881C64.3636 414.389 60.3623 412.902 56.0138 412.902C51.6653 412.902 47.664 414.389 44.4903 416.881L56.0137 428.405ZM52.8451 431.573L41.3217 420.05C38.8291 423.224 37.3426 427.225 37.3426 431.573C37.3426 435.922 38.8291 439.923 41.3217 443.097L52.8451 431.573ZM42.8619 444.826L42.7608 444.725C42.7944 444.759 42.8281 444.793 42.8619 444.826Z" fill="#00C845"/>
<path fill-rule="evenodd" clip-rule="evenodd" d="M30.1948 483.608C27.0211 486.1 23.0198 487.587 18.6713 487.587C14.3228 487.587 10.3215 486.101 7.14793 483.608L18.6714 472.084L30.1948 483.608ZM33.3634 480.439L21.84 468.916L33.3634 457.392C35.856 460.566 37.3426 464.567 37.3426 468.916C37.3426 473.264 35.856 477.266 33.3634 480.439ZM18.6714 465.747L30.1948 454.224C27.0212 451.731 23.0198 450.245 18.6713 450.245C14.3228 450.245 10.3215 451.731 7.14787 454.224L18.6714 465.747ZM15.5028 468.916L3.97924 457.392C1.48657 460.566 0 464.567 0 468.916C0 473.264 1.48659 477.266 3.97929 480.439L15.5028 468.916ZM5.44444 455.737L5.49299 455.689C5.47677 455.705 5.46059 455.721 5.44444 455.737ZM5.53871 482.188L5.39905 482.048C5.44535 482.095 5.49191 482.142 5.53871 482.188Z" fill="#00C845"/>
<path fill-rule="evenodd" clip-rule="evenodd" d="M142.222 483.608C139.049 486.101 135.047 487.587 130.699 487.587C126.35 487.587 122.349 486.101 119.176 483.608L130.699 472.084L142.222 483.608ZM143.866 482.153C143.89 482.13 143.913 482.107 143.937 482.083L143.866 482.153ZM145.391 480.439L133.868 468.916L145.391 457.392C147.884 460.566 149.37 464.567 149.37 468.916C149.37 473.264 147.884 477.266 145.391 480.439ZM130.699 465.747L142.222 454.224C139.049 451.731 135.047 450.245 130.699 450.245C126.35 450.245 122.349 451.731 119.176 454.224L130.699 465.747ZM127.53 468.916L116.007 457.392C113.514 460.566 112.028 464.567 112.028 468.916C112.028 473.264 113.514 477.266 116.007 480.439L127.53 468.916ZM117.548 482.17L117.445 482.067C117.479 482.101 117.514 482.136 117.548 482.17Z" fill="#00C845"/>
<path fill-rule="evenodd" clip-rule="evenodd" d="M437.762 182.734C434.588 185.226 430.587 186.713 426.239 186.713C421.89 186.713 417.889 185.226 414.715 182.734L426.239 171.21L437.762 182.734ZM440.931 179.565L429.407 168.042L440.931 156.518C443.423 159.692 444.91 163.693 444.91 168.042C444.91 172.39 443.423 176.391 440.931 179.565ZM426.239 164.873L437.762 153.35C434.588 150.857 430.587 149.37 426.239 149.37C421.89 149.37 417.889 150.857 414.715 153.35L426.239 164.873ZM423.07 168.042L411.546 156.518C409.054 159.692 407.567 163.693 407.567 168.042C407.567 172.39 409.054 176.391 411.547 179.565L423.07 168.042ZM413.007 154.868L413.065 154.81C413.046 154.829 413.026 154.849 413.007 154.868ZM413.098 181.306L412.974 181.182C413.015 181.223 413.057 181.265 413.098 181.306Z" fill="#00C845"/>
<path fill-rule="evenodd" clip-rule="evenodd" d="M290.526 334.238C287.352 336.73 283.351 338.217 279.002 338.217C274.654 338.217 270.652 336.73 267.479 334.238L279.002 322.714L290.526 334.238ZM292.155 332.798C292.188 332.765 292.221 332.732 292.255 332.698L292.155 332.798ZM293.694 331.069L282.171 319.546L293.694 308.022C296.187 311.196 297.673 315.197 297.673 319.546C297.673 323.894 296.187 327.896 293.694 331.069ZM279.002 316.377L290.526 304.854C287.352 302.361 283.351 300.874 279.002 300.874C274.654 300.874 270.652 302.361 267.479 304.854L279.002 316.377ZM275.833 319.546L264.31 308.022C261.817 311.196 260.331 315.197 260.331 319.546C260.331 323.894 261.817 327.895 264.31 331.069L275.833 319.546ZM265.87 332.818L265.73 332.678C265.776 332.725 265.823 332.772 265.87 332.818Z" fill="#00C845"/>
<path fill-rule="evenodd" clip-rule="evenodd" d="M142.222 408.923C139.049 411.415 135.047 412.902 130.699 412.902C126.351 412.902 122.349 411.415 119.176 408.923L130.699 397.399L142.222 408.923ZM145.391 405.754L133.868 394.231L145.391 382.707C147.884 385.881 149.37 389.882 149.37 394.231C149.37 398.579 147.884 402.581 145.391 405.754ZM130.699 391.062L142.222 379.539C139.049 377.046 135.048 375.559 130.699 375.559C126.35 375.559 122.349 377.046 119.175 379.539L130.699 391.062ZM127.53 394.231L116.007 382.707C113.514 385.881 112.028 389.882 112.028 394.231C112.028 398.579 113.514 402.58 116.007 405.754L127.53 394.231ZM117.453 381.071L117.54 380.985C117.511 381.014 117.482 381.042 117.453 381.071Z" fill="#00C845"/>
<path fill-rule="evenodd" clip-rule="evenodd" d="M437.762 108.049C434.588 110.541 430.587 112.028 426.239 112.028C421.89 112.028 417.889 110.541 414.715 108.049L426.239 96.5252L437.762 108.049ZM440.931 104.88C443.423 101.706 444.91 97.705 444.91 93.3565C444.91 89.008 443.423 85.0067 440.931 81.8331L429.407 93.3566L440.931 104.88ZM426.239 90.1879L437.762 78.6644C434.588 76.1718 430.587 74.6852 426.239 74.6852C421.89 74.6852 417.889 76.1718 414.715 78.6644L426.239 90.1879ZM423.07 93.3566L411.546 81.8331C409.054 85.0067 407.567 89.008 407.567 93.3565C407.567 97.705 409.054 101.706 411.547 104.88L423.07 93.3566ZM413.099 106.622L412.973 106.496C413.015 106.538 413.057 106.58 413.099 106.622Z" fill="#00C845"/>
<path fill-rule="evenodd" clip-rule="evenodd" d="M290.526 259.553C287.352 262.045 283.351 263.532 279.002 263.532C274.654 263.532 270.652 262.045 267.479 259.553L279.002 248.029L290.526 259.553ZM293.694 256.384C296.187 253.21 297.673 249.209 297.673 244.86C297.673 240.512 296.187 236.511 293.694 233.337L282.171 244.861L293.694 256.384ZM279.002 241.692L290.526 230.168C287.352 227.676 283.351 226.189 279.002 226.189C274.654 226.189 270.652 227.676 267.479 230.169L279.002 241.692ZM275.834 244.861L264.31 233.337C261.817 236.511 260.331 240.512 260.331 244.86C260.331 249.209 261.818 253.21 264.31 256.384L275.834 244.861ZM265.841 258.105L265.758 258.021C265.786 258.049 265.814 258.077 265.841 258.105Z" fill="#00C845"/>
<path fill-rule="evenodd" clip-rule="evenodd" d="M142.222 446.265C139.049 448.758 135.047 450.245 130.699 450.245C126.35 450.245 122.349 448.758 119.176 446.265L130.699 434.742L142.222 446.265ZM143.856 444.822C143.886 444.791 143.917 444.761 143.947 444.73L143.856 444.822ZM145.391 443.097L133.868 431.573L145.391 420.05C147.884 423.224 149.37 427.225 149.37 431.573C149.37 435.922 147.884 439.923 145.391 443.097ZM130.699 428.405L142.222 416.881C139.049 414.389 135.047 412.902 130.699 412.902C126.35 412.902 122.349 414.389 119.176 416.881L130.699 428.405ZM127.53 431.573L116.007 420.05C113.514 423.224 112.028 427.225 112.028 431.573C112.028 435.922 113.514 439.923 116.007 443.097L127.53 431.573ZM117.556 444.835L117.437 444.716C117.477 444.756 117.516 444.796 117.556 444.835Z" fill="#00C845"/>
<path fill-rule="evenodd" clip-rule="evenodd" d="M437.762 145.391C434.588 147.884 430.587 149.37 426.239 149.37C421.89 149.37 417.889 147.884 414.715 145.391L426.239 133.868L437.762 145.391ZM439.4 143.943C439.427 143.915 439.455 143.888 439.482 143.86L439.4 143.943ZM440.931 142.222L429.407 130.699L440.931 119.176C443.423 122.349 444.91 126.351 444.91 130.699C444.91 135.047 443.423 139.049 440.931 142.222ZM426.239 127.53L437.762 116.007C434.588 113.514 430.587 112.028 426.239 112.028C421.89 112.028 417.889 113.514 414.715 116.007L426.239 127.53ZM423.07 130.699L411.546 119.176C409.054 122.349 407.567 126.35 407.567 130.699C407.567 135.048 409.054 139.049 411.547 142.223L423.07 130.699ZM413.092 143.957L412.981 143.846C413.017 143.883 413.054 143.92 413.092 143.957Z" fill="#00C845"/>
<path fill-rule="evenodd" clip-rule="evenodd" d="M290.525 296.895C287.352 299.388 283.351 300.874 279.002 300.874C274.654 300.874 270.652 299.388 267.479 296.895L279.002 285.372L290.525 296.895ZM293.694 293.727C296.187 290.553 297.673 286.551 297.673 282.203C297.673 277.854 296.187 273.853 293.694 270.68L282.171 282.203L293.694 293.727ZM279.002 279.035L290.526 267.511C287.352 265.018 283.351 263.532 279.002 263.532C274.654 263.532 270.652 265.018 267.479 267.511L279.002 279.035ZM275.834 282.203L264.31 270.68C261.817 273.853 260.331 277.854 260.331 282.203C260.331 286.551 261.818 290.553 264.31 293.726L275.834 282.203Z" fill="#00C845"/>
<path fill-rule="evenodd" clip-rule="evenodd" d="M142.222 371.58C139.049 374.073 135.047 375.559 130.699 375.559C126.351 375.559 122.349 374.073 119.176 371.58L130.699 360.057L142.222 371.58ZM145.391 368.412L133.868 356.888L145.391 345.365C147.884 348.538 149.37 352.54 149.37 356.888C149.37 361.237 147.884 365.238 145.391 368.412ZM130.699 353.72L142.223 342.196C139.049 339.703 135.048 338.217 130.699 338.217C126.35 338.217 122.349 339.703 119.175 342.196L130.699 353.72ZM127.53 356.888L116.007 345.365C113.514 348.538 112.028 352.54 112.028 356.888C112.028 361.237 113.514 365.238 116.007 368.412L127.53 356.888ZM117.465 343.717L117.528 343.654C117.507 343.675 117.486 343.696 117.465 343.717Z" fill="#00C845"/>
<path fill-rule="evenodd" clip-rule="evenodd" d="M437.762 70.7059C434.588 73.1985 430.587 74.6851 426.239 74.6851C421.89 74.6851 417.889 73.1986 414.715 70.7059L426.239 59.1826L437.762 70.7059ZM440.931 67.5373C443.423 64.3637 444.91 60.3623 444.91 56.0138C444.91 51.6653 443.423 47.6641 440.931 44.4905L429.407 56.014L440.931 67.5373ZM426.239 52.8453L437.762 41.3218C434.588 38.8291 430.587 37.3425 426.239 37.3425C421.89 37.3425 417.889 38.8291 414.715 41.3218L426.239 52.8453ZM423.07 56.014L411.546 44.4904C409.054 47.6641 407.567 51.6653 407.567 56.0138C407.567 60.3624 409.054 64.3637 411.547 67.5373L423.07 56.014ZM413.093 69.2732L412.979 69.1594C413.017 69.1975 413.055 69.2354 413.093 69.2732Z" fill="#00C845"/>
<path fill-rule="evenodd" clip-rule="evenodd" d="M290.525 222.21C287.352 224.703 283.351 226.189 279.002 226.189C274.654 226.189 270.652 224.703 267.479 222.21L279.002 210.687L290.525 222.21ZM293.694 219.042L282.171 207.518L293.694 195.994C296.187 199.168 297.673 203.169 297.673 207.518C297.673 211.866 296.187 215.868 293.694 219.042ZM279.002 204.35L290.526 192.826C287.352 190.333 283.351 188.847 279.002 188.847C274.654 188.847 270.652 190.333 267.479 192.826L279.002 204.35ZM275.833 207.518L264.31 195.995C261.817 199.168 260.331 203.169 260.331 207.518C260.331 211.866 261.818 215.868 264.31 219.041L275.833 207.518ZM265.762 194.353L265.837 194.278C265.812 194.303 265.787 194.328 265.762 194.353Z" fill="#00C845"/>
<path fill-rule="evenodd" clip-rule="evenodd" d="M182.766 334.238C179.592 336.73 175.591 338.217 171.242 338.217C166.894 338.217 162.892 336.73 159.719 334.238L171.242 322.714L182.766 334.238ZM184.401 332.792C184.43 332.763 184.46 332.734 184.489 332.704L184.401 332.792ZM185.934 331.069L174.411 319.546L185.934 308.022C188.427 311.196 189.914 315.197 189.914 319.546C189.914 323.894 188.427 327.896 185.934 331.069ZM171.242 316.377L182.766 304.854C179.592 302.361 175.591 300.874 171.242 300.874C166.894 300.874 162.892 302.361 159.719 304.854L171.242 316.377ZM168.074 319.546L156.55 308.022C154.058 311.196 152.571 315.197 152.571 319.546C152.571 323.894 154.058 327.895 156.55 331.069L168.074 319.546ZM158.108 332.816L157.972 332.68C158.017 332.726 158.062 332.771 158.108 332.816Z" fill="#00C845"/>
<path fill-rule="evenodd" clip-rule="evenodd" d="M478.305 33.3634C475.132 35.856 471.13 37.3426 466.782 37.3426C462.433 37.3426 458.432 35.856 455.259 33.3634L466.782 21.8401L478.305 33.3634ZM481.474 30.1948L469.951 18.6714L481.474 7.14791C483.967 10.3215 485.453 14.3228 485.453 18.6713C485.453 23.0198 483.967 27.0212 481.474 30.1948ZM466.782 15.5028L478.305 3.97927C475.132 1.48658 471.13 0 466.782 0C462.433 0 458.432 1.4866 455.258 3.9793L466.782 15.5028ZM463.613 18.6715L452.09 7.14795C449.597 10.3216 448.111 14.3228 448.111 18.6713C448.111 23.0198 449.597 27.0212 452.09 30.1948L463.613 18.6715ZM453.565 5.48316L453.594 5.45424C453.584 5.46387 453.575 5.47351 453.565 5.48316Z" fill="#00C845"/>
<path fill-rule="evenodd" clip-rule="evenodd" d="M331.069 184.868C327.895 187.36 323.894 188.847 319.546 188.847C315.197 188.847 311.196 187.36 308.022 184.867L319.546 173.344L331.069 184.868ZM332.692 183.434C332.73 183.397 332.767 183.359 332.804 183.322L332.692 183.434ZM334.238 181.699L322.714 170.175L334.238 158.652C336.73 161.826 338.217 165.827 338.217 170.175C338.217 174.524 336.73 178.525 334.238 181.699ZM319.546 167.007L331.069 155.483C327.895 152.991 323.894 151.504 319.546 151.504C315.197 151.504 311.196 152.991 308.022 155.483L319.546 167.007ZM316.377 170.175L304.854 158.652C302.361 161.826 300.874 165.827 300.874 170.175C300.874 174.524 302.361 178.525 304.854 181.699L316.377 170.175ZM306.392 183.426L306.295 183.329C306.327 183.362 306.359 183.394 306.392 183.426Z" fill="#00C845"/>
<path fill-rule="evenodd" clip-rule="evenodd" d="M179.565 408.923C176.391 411.415 172.39 412.902 168.041 412.902C163.693 412.902 159.692 411.415 156.518 408.923L168.041 397.399L179.565 408.923ZM182.733 405.754L171.21 394.231L182.734 382.707C185.226 385.881 186.713 389.882 186.713 394.231C186.713 398.579 185.226 402.581 182.733 405.754ZM168.041 391.062L179.565 379.539C176.391 377.046 172.39 375.559 168.041 375.559C163.693 375.559 159.692 377.046 156.518 379.539L168.041 391.062ZM164.873 394.231L153.349 382.707C150.857 385.881 149.37 389.882 149.37 394.231C149.37 398.579 150.857 402.581 153.349 405.754L164.873 394.231ZM154.787 381.08L154.891 380.976C154.856 381.011 154.821 381.045 154.787 381.08ZM154.889 407.483L154.789 407.383C154.822 407.417 154.855 407.45 154.889 407.483Z" fill="#00C845"/>
<path fill-rule="evenodd" clip-rule="evenodd" d="M475.105 108.049C471.931 110.541 467.93 112.028 463.581 112.028C459.233 112.028 455.231 110.541 452.058 108.049L463.581 96.5251L475.105 108.049ZM478.273 104.88C480.766 101.706 482.252 97.705 482.252 93.3565C482.252 89.008 480.766 85.0067 478.273 81.833L466.75 93.3565L478.273 104.88ZM463.581 90.1879L475.105 78.6644C471.931 76.1718 467.93 74.6852 463.581 74.6852C459.233 74.6852 455.231 76.1718 452.058 78.6644L463.581 90.1879ZM460.413 93.3565L448.889 81.833C446.396 85.0067 444.91 89.008 444.91 93.3565C444.91 97.705 446.396 101.706 448.889 104.88L460.413 93.3565ZM450.436 106.616L450.322 106.502C450.36 106.54 450.398 106.578 450.436 106.616Z" fill="#00C845"/>
<path fill-rule="evenodd" clip-rule="evenodd" d="M327.868 259.553C324.695 262.045 320.693 263.532 316.345 263.532C311.996 263.532 307.995 262.045 304.821 259.553L316.345 248.029L327.868 259.553ZM331.037 256.384C333.529 253.21 335.016 249.209 335.016 244.86C335.016 240.512 333.53 236.511 331.037 233.337L319.513 244.861L331.037 256.384ZM316.345 241.692L327.868 230.168C324.695 227.676 320.693 226.189 316.345 226.189C311.996 226.189 307.995 227.676 304.821 230.168L316.345 241.692ZM313.176 244.861L301.653 233.337C299.16 236.511 297.674 240.512 297.674 244.86C297.674 249.209 299.16 253.21 301.653 256.384L313.176 244.861ZM303.185 258.106L303.1 258.02C303.128 258.049 303.156 258.077 303.185 258.106Z" fill="#00C845"/>
<path fill-rule="evenodd" clip-rule="evenodd" d="M179.565 446.265C176.391 448.758 172.39 450.245 168.041 450.245C163.693 450.245 159.692 448.758 156.518 446.265L168.042 434.742L179.565 446.265ZM181.209 444.811C181.232 444.788 181.256 444.764 181.279 444.741L181.209 444.811ZM182.734 443.097L171.21 431.573L182.734 420.05C185.226 423.224 186.713 427.225 186.713 431.573C186.713 435.922 185.226 439.923 182.734 443.097ZM168.042 428.405L179.565 416.881C176.391 414.389 172.39 412.902 168.041 412.902C163.693 412.902 159.692 414.389 156.518 416.881L168.042 428.405ZM164.873 431.573L153.349 420.05C150.857 423.224 149.37 427.225 149.37 431.573C149.37 435.922 150.857 439.923 153.349 443.097L164.873 431.573ZM154.908 444.845L154.77 444.706C154.816 444.753 154.862 444.799 154.908 444.845Z" fill="#00C845"/>
<path fill-rule="evenodd" clip-rule="evenodd" d="M475.105 145.391C471.931 147.884 467.93 149.37 463.581 149.37C459.233 149.37 455.231 147.884 452.058 145.391L463.581 133.868L475.105 145.391ZM476.743 143.942C476.77 143.915 476.797 143.888 476.824 143.861L476.743 143.942ZM478.273 142.222L466.75 130.699L478.273 119.176C480.766 122.349 482.252 126.351 482.252 130.699C482.252 135.047 480.766 139.049 478.273 142.222ZM463.581 127.53L475.105 116.007C471.931 113.514 467.93 112.028 463.581 112.028C459.233 112.028 455.231 113.514 452.058 116.007L463.581 127.53ZM460.413 130.699L448.889 119.176C446.396 122.349 444.91 126.35 444.91 130.699C444.91 135.048 446.396 139.049 448.889 142.223L460.413 130.699ZM450.427 143.95L450.33 143.853C450.362 143.885 450.395 143.918 450.427 143.95Z" fill="#00C845"/>
<path fill-rule="evenodd" clip-rule="evenodd" d="M327.868 296.895C324.694 299.388 320.693 300.874 316.345 300.874C311.996 300.874 307.995 299.388 304.821 296.895L316.345 285.372L327.868 296.895ZM331.037 293.726L319.513 282.203L331.037 270.68C333.53 273.853 335.016 277.854 335.016 282.203C335.016 286.551 333.529 290.553 331.037 293.726ZM316.345 279.034L327.868 267.511C324.695 265.018 320.693 263.532 316.345 263.532C311.996 263.532 307.995 265.018 304.821 267.511L316.345 279.034ZM313.176 282.203L301.653 270.68C299.16 273.853 297.674 277.854 297.674 282.203C297.674 286.551 299.16 290.553 301.653 293.726L313.176 282.203ZM303.114 269.029L303.171 268.972C303.152 268.991 303.133 269.01 303.114 269.029Z" fill="#00C845"/>
<path fill-rule="evenodd" clip-rule="evenodd" d="M179.565 371.58C176.391 374.073 172.39 375.559 168.041 375.559C163.693 375.559 159.692 374.073 156.518 371.58L168.042 360.057L179.565 371.58ZM182.733 368.412L171.21 356.888L182.734 345.365C185.226 348.538 186.713 352.54 186.713 356.888C186.713 361.237 185.226 365.238 182.733 368.412ZM168.042 353.72L179.565 342.196C176.391 339.703 172.39 338.217 168.041 338.217C163.693 338.217 159.692 339.703 156.518 342.196L168.042 353.72ZM164.873 356.888L153.349 345.365C150.857 348.538 149.37 352.54 149.37 356.888C149.37 361.237 150.857 365.238 153.35 368.412L164.873 356.888ZM154.796 343.729L154.882 343.642C154.853 343.671 154.824 343.7 154.796 343.729ZM154.88 370.132L154.798 370.049C154.825 370.077 154.853 370.104 154.88 370.132Z" fill="#00C845"/>
<path fill-rule="evenodd" clip-rule="evenodd" d="M475.105 70.7059C471.931 73.1985 467.93 74.6851 463.581 74.6851C459.233 74.6851 455.231 73.1985 452.058 70.7059L463.581 59.1825L475.105 70.7059ZM478.273 67.5373C480.766 64.3637 482.252 60.3623 482.252 56.0138C482.252 51.6653 480.766 47.6641 478.273 44.4904L466.75 56.0139L478.273 67.5373ZM463.581 52.8453L475.105 41.3218C471.931 38.8291 467.93 37.3425 463.581 37.3425C459.233 37.3425 455.231 38.8291 452.058 41.3218L463.581 52.8453ZM460.413 56.0139L448.889 44.4904C446.396 47.6641 444.91 51.6653 444.91 56.0138C444.91 60.3623 446.396 64.3637 448.889 67.5373L460.413 56.0139ZM450.429 69.2663L450.329 69.1663C450.362 69.1997 450.395 69.2331 450.429 69.2663Z" fill="#00C845"/>
<path fill-rule="evenodd" clip-rule="evenodd" d="M327.868 222.21C324.694 224.703 320.693 226.189 316.345 226.189C311.996 226.189 307.995 224.703 304.821 222.21L316.345 210.687L327.868 222.21ZM331.037 219.041L319.513 207.518L331.037 195.994C333.53 199.168 335.016 203.169 335.016 207.518C335.016 211.866 333.529 215.868 331.037 219.041ZM316.345 204.349L327.868 192.826C324.695 190.333 320.693 188.847 316.345 188.847C311.996 188.847 307.995 190.333 304.821 192.826L316.345 204.349ZM313.176 207.518L301.653 195.995C299.16 199.168 297.674 203.169 297.674 207.518C297.674 211.866 299.16 215.868 301.653 219.041L313.176 207.518ZM303.094 194.363L303.19 194.268C303.158 194.299 303.126 194.331 303.094 194.363Z" fill="#00C845"/>
<path fill-rule="evenodd" clip-rule="evenodd" d="M216.908 334.238C213.734 336.73 209.733 338.217 205.384 338.217C201.036 338.217 197.034 336.73 193.861 334.238L205.384 322.714L216.908 334.238ZM220.076 331.069C222.569 327.895 224.055 323.894 224.055 319.546C224.055 315.197 222.569 311.196 220.076 308.022L208.553 319.546L220.076 331.069ZM205.384 316.377L216.907 304.854C213.734 302.361 209.733 300.874 205.384 300.874C201.036 300.874 197.034 302.361 193.861 304.854L205.384 316.377ZM202.215 319.546L190.692 308.022C188.199 311.196 186.713 315.197 186.713 319.546C186.713 323.894 188.199 327.895 190.692 331.069L202.215 319.546ZM192.259 332.825L192.105 332.671C192.156 332.723 192.207 332.774 192.259 332.825Z" fill="#00C845"/>
<path fill-rule="evenodd" clip-rule="evenodd" d="M512.447 33.3634C509.273 35.856 505.272 37.3426 500.924 37.3426C496.575 37.3426 492.574 35.856 489.4 33.3635L500.924 21.8401L512.447 33.3634ZM515.616 30.1948L504.092 18.6715L515.616 7.148C518.108 10.3216 519.595 14.3228 519.595 18.6713C519.595 23.0198 518.108 27.0211 515.616 30.1948ZM500.924 15.5029L512.447 3.97935C509.274 1.48661 505.272 0 500.924 0C496.575 0 492.574 1.48658 489.4 3.97926L500.924 15.5029ZM497.755 18.6715L486.232 7.14789C483.739 10.3215 482.252 14.3228 482.252 18.6713C482.252 23.0199 483.739 27.0212 486.232 30.1949L497.755 18.6715ZM487.682 5.50782L487.76 5.42967C487.734 5.45565 487.708 5.4817 487.682 5.50782ZM487.78 31.9328L487.662 31.8147C487.701 31.8542 487.741 31.8936 487.78 31.9328Z" fill="#00C845"/>
<path fill-rule="evenodd" clip-rule="evenodd" d="M365.211 184.868C362.037 187.36 358.036 188.847 353.687 188.847C349.339 188.847 345.338 187.36 342.164 184.867L353.687 173.344L365.211 184.868ZM366.839 183.429C366.873 183.395 366.907 183.361 366.941 183.327L366.839 183.429ZM368.379 181.699L356.856 170.175L368.379 158.652C370.872 161.826 372.359 165.827 372.359 170.175C372.359 174.524 370.872 178.525 368.379 181.699ZM353.687 167.007L365.211 155.483C362.037 152.991 358.036 151.504 353.687 151.504C349.339 151.504 345.338 152.991 342.164 155.483L353.687 167.007ZM350.519 170.175L338.995 158.652C336.503 161.826 335.016 165.827 335.016 170.175C335.016 174.524 336.503 178.525 338.995 181.699L350.519 170.175ZM340.538 183.431L340.431 183.324C340.467 183.36 340.503 183.396 340.538 183.431Z" fill="#00C845"/>
<path fill-rule="evenodd" clip-rule="evenodd" d="M253.183 296.895C250.009 299.388 246.008 300.874 241.66 300.874C237.311 300.874 233.31 299.388 230.136 296.895L241.66 285.372L253.183 296.895ZM256.352 293.726L244.828 282.203L256.352 270.68C258.844 273.853 260.331 277.854 260.331 282.203C260.331 286.551 258.844 290.553 256.352 293.726ZM241.66 279.034L253.183 267.511C250.01 265.018 246.008 263.532 241.66 263.532C237.311 263.532 233.31 265.018 230.136 267.511L241.66 279.034ZM238.491 282.203L226.968 270.68C224.475 273.853 222.988 277.854 222.988 282.203C222.988 286.551 224.475 290.553 226.968 293.726L238.491 282.203ZM228.431 269.026L228.483 268.975C228.466 268.992 228.448 269.009 228.431 269.026Z" fill="#00C845"/>
<path fill-rule="evenodd" clip-rule="evenodd" d="M401.486 147.525C398.313 150.018 394.311 151.504 389.963 151.504C385.615 151.504 381.613 150.018 378.44 147.525L389.963 136.002L401.486 147.525ZM404.655 144.356L393.132 132.833L404.655 121.309C407.148 124.483 408.634 128.484 408.634 132.833C408.634 137.181 407.148 141.183 404.655 144.356ZM389.963 129.664L401.487 118.141C398.313 115.648 394.312 114.161 389.963 114.161C385.614 114.161 381.613 115.648 378.439 118.141L389.963 129.664ZM386.794 132.833L375.271 121.309C372.778 124.483 371.292 128.484 371.292 132.833C371.292 137.181 372.778 141.183 375.271 144.356L386.794 132.833ZM376.717 119.674L376.804 119.587C376.775 119.616 376.746 119.645 376.717 119.674ZM376.832 146.107L376.689 145.964C376.737 146.012 376.784 146.059 376.832 146.107Z" fill="#00C845"/>
<path fill-rule="evenodd" clip-rule="evenodd" d="M216.907 408.923C213.734 411.415 209.732 412.902 205.384 412.902C201.036 412.902 197.034 411.415 193.861 408.923L205.384 397.399L216.907 408.923ZM220.076 405.754L208.553 394.231L220.076 382.707C222.569 385.881 224.055 389.882 224.055 394.231C224.055 398.579 222.569 402.581 220.076 405.754ZM205.384 391.062L216.908 379.539C213.734 377.046 209.733 375.559 205.384 375.559C201.035 375.559 197.034 377.046 193.86 379.539L205.384 391.062ZM202.215 394.231L190.692 382.707C188.199 385.881 186.713 389.882 186.713 394.231C186.713 398.579 188.199 402.581 190.692 405.754L202.215 394.231ZM192.128 381.081L192.235 380.975C192.199 381.01 192.164 381.046 192.128 381.081ZM192.232 407.484L192.131 407.383C192.165 407.416 192.198 407.45 192.232 407.484Z" fill="#00C845"/>
<path fill-rule="evenodd" clip-rule="evenodd" d="M512.447 108.049C509.274 110.541 505.272 112.028 500.924 112.028C496.575 112.028 492.574 110.541 489.4 108.049L500.924 96.5252L512.447 108.049ZM515.616 104.88L504.092 93.3566L515.616 81.8331C518.108 85.0067 519.595 89.008 519.595 93.3565C519.595 97.705 518.108 101.706 515.616 104.88ZM500.924 90.1879L512.447 78.6645C509.274 76.1718 505.272 74.6852 500.924 74.6852C496.575 74.6852 492.574 76.1717 489.4 78.6644L500.924 90.1879ZM497.755 93.3566L486.232 81.833C483.739 85.0066 482.252 89.0079 482.252 93.3565C482.252 97.705 483.739 101.706 486.232 104.88L497.755 93.3566ZM487.792 106.629L487.651 106.488C487.698 106.536 487.745 106.583 487.792 106.629Z" fill="#00C845"/>
<path fill-rule="evenodd" clip-rule="evenodd" d="M365.211 259.553C362.037 262.045 358.036 263.532 353.687 263.532C349.339 263.532 345.338 262.045 342.164 259.553L353.687 248.029L365.211 259.553ZM368.379 256.384C370.872 253.21 372.359 249.209 372.359 244.86C372.359 240.512 370.872 236.511 368.379 233.337L356.856 244.861L368.379 256.384ZM353.687 241.692L365.211 230.168C362.037 227.676 358.036 226.189 353.687 226.189C349.339 226.189 345.337 227.676 342.164 230.169L353.687 241.692ZM350.519 244.861L338.995 233.337C336.503 236.511 335.016 240.512 335.016 244.86C335.016 249.209 336.503 253.21 338.995 256.384L350.519 244.861Z" fill="#00C845"/>
<path fill-rule="evenodd" clip-rule="evenodd" d="M253.183 371.58C250.009 374.073 246.008 375.559 241.66 375.559C237.311 375.559 233.31 374.073 230.136 371.58L241.66 360.057L253.183 371.58ZM256.352 368.412L244.828 356.888L256.352 345.365C258.844 348.538 260.331 352.54 260.331 356.888C260.331 361.237 258.844 365.238 256.352 368.412ZM241.66 353.72L253.183 342.196C250.01 339.703 246.008 338.217 241.66 338.217C237.311 338.217 233.31 339.703 230.136 342.196L241.66 353.72ZM238.491 356.888L226.968 345.365C224.475 348.538 222.988 352.54 222.988 356.888C222.988 361.237 224.475 365.238 226.968 368.412L238.491 356.888ZM228.429 343.714L228.486 343.657C228.467 343.676 228.448 343.695 228.429 343.714Z" fill="#00C845"/>
<path fill-rule="evenodd" clip-rule="evenodd" d="M401.486 222.21C398.313 224.703 394.311 226.189 389.963 226.189C385.615 226.189 381.613 224.703 378.44 222.21L389.963 210.687L401.486 222.21ZM404.655 219.041L393.132 207.518L404.655 195.995C407.148 199.168 408.634 203.169 408.634 207.518C408.634 211.866 407.148 215.868 404.655 219.041ZM389.963 204.35L401.487 192.826C398.313 190.333 394.312 188.847 389.963 188.847C385.614 188.847 381.613 190.333 378.439 192.826L389.963 204.35ZM386.794 207.518L375.271 195.995C372.778 199.168 371.292 203.169 371.292 207.518C371.292 211.866 372.778 215.868 375.271 219.041L386.794 207.518ZM376.7 194.376L376.821 194.255C376.781 194.295 376.74 194.335 376.7 194.376ZM376.818 220.778L376.703 220.663C376.741 220.701 376.78 220.74 376.818 220.778Z" fill="#00C845"/>
<path fill-rule="evenodd" clip-rule="evenodd" d="M216.907 296.895C213.734 299.388 209.733 300.874 205.384 300.874C201.036 300.874 197.034 299.388 193.861 296.895L205.384 285.372L216.907 296.895ZM220.076 293.726L208.553 282.203L220.076 270.68C222.569 273.853 224.055 277.854 224.055 282.203C224.055 286.551 222.569 290.553 220.076 293.726ZM205.384 279.034L216.908 267.511C213.734 265.018 209.733 263.532 205.384 263.532C201.035 263.532 197.034 265.018 193.861 267.511L205.384 279.034ZM202.215 282.203L190.692 270.68C188.199 273.853 186.713 277.854 186.713 282.203C186.713 286.551 188.199 290.553 190.692 293.726L202.215 282.203ZM192.139 269.043L192.224 268.958C192.196 268.986 192.167 269.015 192.139 269.043ZM192.226 295.45L192.137 295.361C192.167 295.391 192.196 295.42 192.226 295.45Z" fill="#00C845"/>
<path fill-rule="evenodd" clip-rule="evenodd" d="M549.79 70.7059C546.616 73.1985 542.615 74.6851 538.266 74.6851C533.918 74.6851 529.917 73.1986 526.743 70.706L538.266 59.1825L549.79 70.7059ZM552.958 67.5372L541.435 56.0139L552.958 44.4905C555.451 47.6641 556.938 51.6653 556.938 56.0138C556.938 60.3623 555.451 64.3636 552.958 67.5372ZM538.266 52.8453L549.79 41.3218C546.616 38.8291 542.615 37.3425 538.266 37.3425C533.918 37.3425 529.916 38.8291 526.743 41.3217L538.266 52.8453ZM535.098 56.0139L523.574 44.4904C521.082 47.664 519.595 51.6653 519.595 56.0138C519.595 60.3624 521.082 64.3637 523.574 67.5374L535.098 56.0139ZM525.023 42.8519L525.104 42.7706C525.077 42.7976 525.05 42.8248 525.023 42.8519ZM525.123 69.2751L525.005 69.1574C525.044 69.1968 525.083 69.2361 525.123 69.2751Z" fill="#00C845"/>
<path fill-rule="evenodd" clip-rule="evenodd" d="M549.79 33.3634C546.616 35.856 542.615 37.3426 538.266 37.3426C533.918 37.3426 529.917 35.856 526.743 33.3635L538.266 21.84L549.79 33.3634ZM552.958 30.1947L541.435 18.6714L552.958 7.14797C555.451 10.3216 556.938 14.3228 556.938 18.6713C556.938 23.0198 555.451 27.0211 552.958 30.1947ZM538.266 15.5028L549.79 3.97932C546.616 1.4866 542.615 0 538.266 0C533.918 0 529.916 1.48657 526.743 3.97923L538.266 15.5028ZM535.098 18.6714L523.574 7.14786C521.082 10.3215 519.595 14.3228 519.595 18.6713C519.595 23.0198 521.082 27.0212 523.574 30.1949L535.098 18.6714ZM525.015 5.51791L525.113 5.41965C525.08 5.45228 525.047 5.48504 525.015 5.51791ZM525.116 31.9261L525.011 31.8214C525.046 31.8564 525.081 31.8914 525.116 31.9261Z" fill="#00C845"/>
<path fill-rule="evenodd" clip-rule="evenodd" d="M587.132 33.3634C583.959 35.856 579.957 37.3426 575.609 37.3426C571.26 37.3426 567.259 35.856 564.086 33.3635L575.609 21.8401L587.132 33.3634ZM590.301 30.1947L578.778 18.6715L590.301 7.14801C592.794 10.3216 594.28 14.3229 594.28 18.6713C594.28 23.0198 592.793 27.0211 590.301 30.1947ZM575.609 15.5028L587.132 3.97935C583.959 1.48661 579.957 0 575.609 0C571.26 0 567.259 1.48657 564.085 3.97923L575.609 15.5028ZM572.44 18.6715L560.917 7.14785C558.424 10.3215 556.938 14.3228 556.938 18.6713C556.938 23.0199 558.424 27.0212 560.917 30.1949L572.44 18.6715ZM562.356 5.51868L562.456 5.41889C562.423 5.45203 562.39 5.48529 562.356 5.51868ZM562.467 31.934L562.346 31.8134C562.386 31.8538 562.426 31.894 562.467 31.934Z" fill="#00C845"/>
<path fill-rule="evenodd" clip-rule="evenodd" d="M365.211 147.525C362.037 150.018 358.036 151.504 353.687 151.504C349.339 151.504 345.338 150.017 342.164 147.525L353.687 136.002L365.211 147.525ZM368.379 144.356C370.872 141.183 372.359 137.181 372.359 132.833C372.359 128.484 370.872 124.483 368.379 121.309L356.856 132.833L368.379 144.356ZM353.687 129.664L365.211 118.141C362.037 115.648 358.036 114.161 353.687 114.161C349.339 114.161 345.337 115.648 342.164 118.141L353.687 129.664ZM350.519 132.833L338.995 121.309C336.503 124.483 335.016 128.484 335.016 132.833C335.016 137.181 336.503 141.183 338.995 144.356L350.519 132.833ZM340.531 146.082L340.438 145.989C340.469 146.02 340.5 146.051 340.531 146.082Z" fill="#00C845"/>
<path fill-rule="evenodd" clip-rule="evenodd" d="M253.183 259.553C250.009 262.045 246.008 263.532 241.66 263.532C237.311 263.532 233.31 262.045 230.136 259.553L241.66 248.029L253.183 259.553ZM256.352 256.384C258.844 253.21 260.331 249.209 260.331 244.86C260.331 240.512 258.844 236.511 256.352 233.337L244.828 244.861L256.352 256.384ZM241.66 241.692L253.183 230.168C250.01 227.676 246.008 226.189 241.66 226.189C237.311 226.189 233.31 227.676 230.136 230.169L241.66 241.692ZM238.491 244.861L226.968 233.337C224.475 236.511 222.988 240.512 222.988 244.86C222.988 249.209 224.475 253.21 226.968 256.384L238.491 244.861Z" fill="#00C845"/>
<path fill-rule="evenodd" clip-rule="evenodd" d="M401.486 110.182C398.313 112.675 394.311 114.162 389.963 114.162C385.615 114.162 381.613 112.675 378.44 110.182L389.963 98.659L401.486 110.182ZM404.655 107.014L393.132 95.4904L404.655 83.967C407.148 87.1406 408.634 91.1418 408.634 95.4902C408.634 99.8388 407.148 103.84 404.655 107.014ZM389.963 92.3218L401.487 80.7983C398.313 78.3056 394.312 76.819 389.963 76.819C385.614 76.819 381.613 78.3055 378.439 80.7982L389.963 92.3218ZM386.794 95.4904L375.271 83.9668C372.778 87.1405 371.292 91.1418 371.292 95.4902C371.292 99.8388 372.778 103.84 375.271 107.014L386.794 95.4904ZM376.728 82.32L376.793 82.2554C376.771 82.2769 376.75 82.2984 376.728 82.32ZM376.826 108.759L376.695 108.627C376.738 108.671 376.782 108.715 376.826 108.759Z" fill="#00C845"/>
<path fill-rule="evenodd" clip-rule="evenodd" d="M216.907 371.58C213.734 374.073 209.733 375.559 205.384 375.559C201.036 375.559 197.034 374.073 193.861 371.58L205.384 360.057L216.907 371.58ZM220.076 368.412L208.553 356.888L220.076 345.365C222.569 348.538 224.055 352.54 224.055 356.888C224.055 361.237 222.569 365.238 220.076 368.412ZM205.384 353.72L216.908 342.196C213.734 339.703 209.733 338.217 205.384 338.217C201.035 338.217 197.034 339.703 193.861 342.196L205.384 353.72ZM202.215 356.888L190.692 345.365C188.199 348.538 186.713 352.54 186.713 356.888C186.713 361.237 188.199 365.238 190.692 368.412L202.215 356.888ZM192.137 343.73L192.226 343.641C192.196 343.671 192.167 343.7 192.137 343.73ZM192.224 370.133L192.139 370.048C192.167 370.077 192.196 370.105 192.224 370.133Z" fill="#00C845"/>
<path fill-rule="evenodd" clip-rule="evenodd" d="M512.447 70.7059C509.274 73.1985 505.272 74.6851 500.924 74.6851C496.575 74.6851 492.574 73.1986 489.4 70.706L500.924 59.1826L512.447 70.7059ZM515.616 67.5373L504.092 56.014L515.616 44.4905C518.108 47.6641 519.595 51.6654 519.595 56.0138C519.595 60.3623 518.108 64.3636 515.616 67.5373ZM500.924 52.8453L512.447 41.3219C509.274 38.8291 505.272 37.3425 500.924 37.3425C496.575 37.3425 492.574 38.8291 489.4 41.3218L500.924 52.8453ZM497.755 56.014L486.232 44.4904C483.739 47.664 482.252 51.6653 482.252 56.0138C482.252 60.3624 483.739 64.3637 486.232 67.5374L497.755 56.014ZM487.693 42.8389L487.749 42.7836C487.73 42.802 487.712 42.8204 487.693 42.8389ZM487.786 69.2811L487.656 69.1513C487.699 69.1948 487.743 69.2381 487.786 69.2811Z" fill="#00C845"/>
<path fill-rule="evenodd" clip-rule="evenodd" d="M365.211 222.21C362.037 224.703 358.036 226.189 353.687 226.189C349.339 226.189 345.338 224.703 342.164 222.21L353.687 210.687L365.211 222.21ZM368.379 219.042L356.856 207.518L368.38 195.994C370.872 199.168 372.359 203.169 372.359 207.518C372.359 211.866 370.872 215.868 368.379 219.042ZM353.687 204.349L365.211 192.826C362.037 190.333 358.036 188.847 353.687 188.847C349.339 188.847 345.337 190.333 342.164 192.826L353.687 204.349ZM350.519 207.518L338.995 195.995C336.503 199.168 335.016 203.169 335.016 207.518C335.016 211.866 336.503 215.868 338.995 219.041L350.519 207.518ZM340.445 194.355L340.524 194.276C340.498 194.302 340.472 194.328 340.445 194.355Z" fill="#00C845"/>
<path fill-rule="evenodd" clip-rule="evenodd" d="M253.183 334.238C250.009 336.73 246.008 338.217 241.66 338.217C237.311 338.217 233.31 336.73 230.136 334.238L241.66 322.714L253.183 334.238ZM254.821 332.79C254.848 332.762 254.876 332.734 254.904 332.707L254.821 332.79ZM256.352 331.069L244.828 319.546L256.352 308.022C258.844 311.196 260.331 315.197 260.331 319.546C260.331 323.894 258.844 327.896 256.352 331.069ZM241.66 316.377L253.183 304.854C250.009 302.361 246.008 300.874 241.66 300.874C237.311 300.874 233.31 302.361 230.136 304.854L241.66 316.377ZM238.491 319.546L226.968 308.022C224.475 311.196 222.988 315.197 222.988 319.546C222.988 323.894 224.475 327.895 226.968 331.069L238.491 319.546ZM228.52 332.811L228.394 332.685C228.436 332.727 228.478 332.769 228.52 332.811Z" fill="#00C845"/>
<path fill-rule="evenodd" clip-rule="evenodd" d="M401.486 184.867C398.313 187.36 394.311 188.847 389.963 188.847C385.614 188.847 381.613 187.36 378.44 184.868L389.963 173.344L401.486 184.867ZM404.655 181.699C407.148 178.525 408.634 174.524 408.634 170.175C408.634 165.827 407.148 161.826 404.655 158.652L393.132 170.175L404.655 181.699ZM389.963 167.007L401.486 155.483C398.313 152.991 394.312 151.504 389.963 151.504C385.614 151.504 381.613 152.991 378.44 155.483L389.963 167.007ZM386.794 170.175L375.271 158.652C372.778 161.826 371.292 165.827 371.292 170.175C371.292 174.524 372.778 178.525 375.271 181.699L386.794 170.175ZM376.837 183.454L376.684 183.302C376.735 183.353 376.786 183.403 376.837 183.454Z" fill="#00C845"/>
</svg>
